<svg xmlns="http://www.w3.org/2000/svg" width="31.06" height="30.8" viewBox="0 0 31.06 30.8"><defs><style>.cls-1{fill:#42526e;}</style></defs><g id="Camada_2" data-name="Camada 2"><g id="Camada_1-2" data-name="Camada 1"><path class="cls-1" d="M26.49,18.25l4.57-1.36V13.35l-4.61-1.23a11.41,11.41,0,0,0-1-2.44l2.25-4.25L25.14,2.94,21,5.41a11.74,11.74,0,0,0-2.55-1h0L18,2.86h0L17.14,0H13.62L12.34,4.7a10.78,10.78,0,0,0-2.44,1L5.73,3.35,3.24,5.83,5.56,10a11.31,11.31,0,0,0-1,2.45L0,13.76v3.52l4.58,1.24A10.86,10.86,0,0,0,5.6,21L3.35,25.18l2.48,2.48L10,25.22a11.15,11.15,0,0,0,2.53,1h0L13.9,30.8l3.53,0,1.28-4.72a12.11,12.11,0,0,0,2.44-1l4.21,2.33,2.48-2.5-2.35-4.16A10.58,10.58,0,0,0,26.49,18.25Zm-11,4.37a7.22,7.22,0,1,1,7.22-7.22A7.22,7.22,0,0,1,15.53,22.62Z"/></g></g></svg>