<svg xmlns="http://www.w3.org/2000/svg" width="30.81" height="30.68" viewBox="0 0 30.81 30.68"><defs><style>.cls-1{fill:#42526e;}</style></defs><g id="Camada_2" data-name="Camada 2"><g id="Camada_1-2" data-name="Camada 1"><path class="cls-1" d="M29.25,8.94H21.87V1.56a1.56,1.56,0,1,0-3.11,0V8.94H11.38a1.56,1.56,0,1,0,0,3.11h7.38v7.38a1.56,1.56,0,1,0,3.11,0V12.05h7.38a1.56,1.56,0,1,0,0-3.11ZM27.72,28.16H2.52V3H13V.44H2.52A2.52,2.52,0,0,0,0,3v25.2a2.52,2.52,0,0,0,2.52,2.52h25.2a2.53,2.53,0,0,0,2.52-2.52V17.72H27.72Z"/></g></g></svg>