<svg xmlns="http://www.w3.org/2000/svg" width="26.15" height="26.14" viewBox="0 0 26.15 26.14"><defs><style>.cls-1{fill:#fff;}</style></defs><g id="Camada_2" data-name="Camada 2"><g id="Camada_1-2" data-name="Camada 1"><path class="cls-1" d="M13.06,0A13.07,13.07,0,1,1,0,13.08,13.12,13.12,0,0,1,13.06,0Zm.06,4.35a5.85,5.85,0,0,0-5.83,5.1c-.08,1,.09,1.88,1.2,2.07S10,11,10.18,10.1a3.47,3.47,0,0,1,.2-.8,2.78,2.78,0,0,1,3.08-1.91,2.72,2.72,0,0,1,2.41,2.49A2.74,2.74,0,0,1,14,12.81c-2.38,1.1-2.88,2-2.41,4.53.15.84.56,1.45,1.45,1.47a1.25,1.25,0,0,0,1.39-1.24c-.05-1.54,1-2.1,2-2.82a5.56,5.56,0,0,0,2.19-6.2A5.93,5.93,0,0,0,13.12,4.35Zm.13,18.88c.65-.26,1.3-.62,1.21-1.55a1.31,1.31,0,0,0-1.35-1.27,1.31,1.31,0,0,0-1.42,1.4C11.7,22.69,12.29,23.12,13.25,23.23Z"/></g></g></svg>