<svg xmlns="http://www.w3.org/2000/svg" width="24.07" height="23.51" viewBox="0 0 24.07 23.51"><defs><style>.cls-1{fill:#fff;}.cls-2{opacity:0.4;}</style></defs><g id="Camada_2" data-name="Camada 2"><g id="Camada_1-2" data-name="Camada 1"><g id="Top"><path class="cls-1" d="M12,23.51h0L.28,11.76,4.4,7.64,12,15.27A5.82,5.82,0,0,1,12,23.51Z"/></g><g class="cls-2"><path d="M0,12.15,6,6.88s5.83,1.61,5.82,1.62c-.59.9-1.36,1.67-2,2.52a7.37,7.37,0,0,1-3.2,2.81l-.08,0-.21.06,0,0a6.09,6.09,0,0,1-4.28-.35A6,6,0,0,1,0,12.15Z"/></g><g id="Left"><path class="cls-1" d="M.28,11.76h0L12,0l4.12,4.12L8.52,11.76A5.84,5.84,0,0,1,.28,11.76Z"/></g><g id="Top-2" data-name="Top"><path class="cls-1" d="M12,0h0L23.79,11.76l-4.12,4.12L12,8.24A5.84,5.84,0,0,1,12,0Z"/></g><g class="cls-2"><path d="M24.07,11.37l-5.95,5.26S12.29,15,12.3,15c.59-.9,1.36-1.67,2-2.52a7.37,7.37,0,0,1,3.2-2.81l.08,0,.21-.07.05,0a6.14,6.14,0,0,1,4.28.35A6.05,6.05,0,0,1,24.07,11.37Z"/></g><g id="Left-2" data-name="Left"><path class="cls-1" d="M23.79,11.76h0L12,23.51,7.91,19.39l7.64-7.63A5.82,5.82,0,0,1,23.79,11.76Z"/></g></g></g></svg>