<svg xmlns="http://www.w3.org/2000/svg" width="31.36" height="29.4" viewBox="0 0 31.36 29.4"><defs><style>.cls-1{fill:#42526e;}</style></defs><g id="Camada_2" data-name="Camada 2"><g id="Camada_1-2" data-name="Camada 1"><path class="cls-1" d="M30.38,10.59l-1-.79V2a2,2,0,1,0-3.92,0v1c-3.92,1.76-9.8,4.9-15.68,4.9H4.9A5,5,0,0,0,0,12.74a4.79,4.79,0,0,0,2.35,4.12L4.51,28.42c0,.59.59,1,1.37,1h.39L13.33,28c.78-.19,1.18-.78,1-1.37A12.39,12.39,0,0,0,12,23.13c-.39-.2-1-1.76-1.37-3.53h1.17V17.84c5.29.59,11.76,3.13,13.72,4.7v1a2,2,0,0,0,3.92,0V15.68l.79-.59a2.7,2.7,0,0,0,1.17-2.15v-.39A2.69,2.69,0,0,0,30.38,10.59ZM3.92,9.8H9.8v2H3.92ZM11,24.7c.19,0,.59.59,1,1.37L6.47,27.44l-2-9.8H8.23C8.63,20.19,9.41,23.91,11,24.7Zm14.5-4.51c-3.13-1.57-8.62-3.92-13.72-4.51V9.8A40.13,40.13,0,0,0,25.48,5.29Z"/></g></g></svg>